<svg xmlns="http://www.w3.org/2000/svg" width="512" height="512" viewBox="0 0 512 512" role="img" aria-labelledby="title desc">
  <title id="title">A1 Premium Coastal social avatar</title>
  <desc id="desc">Bold Bird Control BC social media avatar designed for square and circular crops.</desc>
  <rect width="512" height="512" rx="116" fill="#10352D"/>
  <circle cx="256" cy="256" r="204" fill="none" stroke="#F7F2E8" stroke-width="6" opacity=".2"/>
  <g transform="translate(56 76) scale(4.05)"><path d="M12 50C29 29 50 20 73 27c11 3 21-2 34-13-3 13-10 23-21 29l22 8-24 6C68 72 46 77 23 68c12-8 20-18 26-31-14 3-26 7-37 13Z" fill="#F7F2E8"/>
    <path d="M29 55c14-14 31-22 50-24-14 10-24 21-31 34-7-3-13-6-19-10Z" fill="#AEBB82"/>
    <circle cx="83" cy="31" r="2.6" fill="#10352D"/>
    <path d="M19 81h82" fill="none" stroke="#F7F2E8" stroke-width="5" stroke-linecap="square"/></g>
</svg>
